<?xml version="1.0" encoding="UTF-8"?>
<!DOCTYPE svg PUBLIC "-//W3C//DTD SVG 1.1//EN" "http://www.w3.org/Graphics/SVG/1.1/DTD/svg11.dtd">
<svg xmlns="http://www.w3.org/2000/svg" version="1.1" width="403px" height="141px" style="shape-rendering:geometricPrecision; text-rendering:geometricPrecision; image-rendering:optimizeQuality; fill-rule:evenodd; clip-rule:evenodd" xmlns:xlink="http://www.w3.org/1999/xlink">
<g><path style="opacity:0.999" fill="#010101" d="M 3.5,-0.5 C 135.167,-0.5 266.833,-0.5 398.5,-0.5C 400.167,0.5 401.5,1.83333 402.5,3.5C 402.5,49.1667 402.5,94.8333 402.5,140.5C 268.167,140.5 133.833,140.5 -0.5,140.5C -0.5,94.8333 -0.5,49.1667 -0.5,3.5C 0.5,1.83333 1.83333,0.5 3.5,-0.5 Z"/></g>
<g><path style="opacity:1" fill="#a5ada6" d="M 5.5,2.5 C 135.834,2.33333 266.167,2.5 396.5,3C 397.333,3.83333 398.167,4.66667 399,5.5C 399.5,36.4982 399.667,67.4982 399.5,98.5C 306.833,98.3333 214.166,98.5 121.5,99C 105.056,124.155 82.0555,133.488 52.5,127C 37.533,121.69 25.8664,112.357 17.5,99C 12.5111,98.5007 7.51108,98.3341 2.5,98.5C 2.33335,67.4982 2.50002,36.4982 3,5.5C 4.04499,4.62656 4.87833,3.62656 5.5,2.5 Z"/></g>
<g><path style="opacity:1" fill="#090909" d="M 163.5,11.5 C 186.89,8.43242 202.724,17.7657 211,39.5C 215.058,64.2307 205.225,80.3974 181.5,88C 158.184,90.4279 142.684,80.5946 135,58.5C 132.376,35.3254 141.876,19.6587 163.5,11.5 Z"/></g>
<g><path style="opacity:1" fill="#090a09" d="M 251.5,11.5 C 275.393,8.34861 291.226,18.0153 299,40.5C 302.234,64.5438 292.401,80.3772 269.5,88C 245.508,90.6602 230.008,80.4936 223,57.5C 220.596,34.6173 230.096,19.284 251.5,11.5 Z"/></g>
<g><path style="opacity:1" fill="#090909" d="M 338.5,11.5 C 362.864,8.42505 379.031,18.425 387,41.5C 388.207,73.6266 372.707,89.1266 340.5,88C 314.211,78.5887 305.044,60.422 313,33.5C 318.64,22.6828 327.14,15.3494 338.5,11.5 Z"/></g>
<g><path style="opacity:1" fill="#070707" d="M 65.5,12.5 C 93.612,12.4745 112.112,25.8079 121,52.5C 125.286,83.7821 112.786,104.949 83.5,116C 50.0518,121.196 28.2185,107.696 18,75.5C 14.6794,47.8456 25.5127,28.0123 50.5,16C 55.5111,14.2923 60.5111,13.1256 65.5,12.5 Z"/></g>
<g><path style="opacity:1" fill="#fafafa" d="M 164.5,18.5 C 184.95,15.7994 198.45,24.1327 205,43.5C 205.6,69.9014 192.766,82.4014 166.5,81C 147.798,74.9498 139.632,62.1164 142,42.5C 145.956,31.0477 153.456,23.0477 164.5,18.5 Z"/></g>
<g><path style="opacity:1" fill="#f8f8f8" d="M 252.5,18.5 C 280.365,16.699 293.698,29.699 292.5,57.5C 280.97,53.4049 269.637,48.7382 258.5,43.5C 257.253,41.9936 257.253,40.4936 258.5,39C 261.798,38.4583 264.965,38.9583 268,40.5C 274.525,37.7873 274.692,35.2873 268.5,33C 266.866,32.5065 265.199,32.3398 263.5,32.5C 263.5,30.5 263.5,28.5 263.5,26.5C 262.167,26.5 260.833,26.5 259.5,26.5C 259.5,28.5 259.5,30.5 259.5,32.5C 257.345,32.372 255.345,32.872 253.5,34C 251.631,35.5436 249.797,37.0436 248,38.5C 243.164,36.9986 238.664,34.8319 234.5,32C 239.274,25.7081 245.274,21.2081 252.5,18.5 Z"/></g>
<g><path style="opacity:1" fill="#f8f8f8" d="M 339.5,18.5 C 359.732,15.3592 373.232,23.3592 380,42.5C 381.167,69.3333 368.333,82.1667 341.5,81C 323.434,75.0489 315.268,62.5489 317,43.5C 320.528,31.4779 328.028,23.1445 339.5,18.5 Z"/></g>
<g><path style="opacity:1" fill="#fafafa" d="M 59.5,22.5 C 85.9848,19.4803 103.485,30.4803 112,55.5C 115.256,82.174 104.09,99.3406 78.5,107C 52.7661,109.924 35.9328,99.0906 28,74.5C 24.5947,48.7395 35.0947,31.4062 59.5,22.5 Z"/></g>
<g><path style="opacity:1" fill="#141414" d="M 171.5,24.5 C 176.813,24.6438 178.979,27.3105 178,32.5C 174.206,36.741 170.873,36.4077 168,31.5C 167.576,28.3478 168.743,26.0144 171.5,24.5 Z"/></g>
<g><path style="opacity:1" fill="#0a0a0a" d="M 331.5,57.5 C 334.287,56.5233 337.287,56.19 340.5,56.5C 341.201,58.7105 342.535,60.5438 344.5,62C 347.5,62.6667 350.5,62.6667 353.5,62C 356.949,58.0615 358.615,53.3948 358.5,48C 358.375,41.3757 355.041,37.8757 348.5,37.5C 344.406,37.594 341.739,39.594 340.5,43.5C 341.025,44.1924 341.692,44.6924 342.5,45C 340.317,47.3504 337.984,49.517 335.5,51.5C 333.517,50.018 331.684,48.3513 330,46.5C 334.571,29.9717 344.737,25.4717 360.5,33C 368.708,40.8281 370.541,49.9948 366,60.5C 360.243,69.5354 352.076,72.7021 341.5,70C 335.9,67.6269 332.567,63.4602 331.5,57.5 Z"/></g>
<g><path style="opacity:1" fill="#030303" d="M 183.5,39.5 C 183.5,44.8333 183.5,50.1667 183.5,55.5C 181.901,55.2322 180.568,55.5655 179.5,56.5C 179.5,62.5 179.5,68.5 179.5,74.5C 175.5,74.5 171.5,74.5 167.5,74.5C 167.5,68.5 167.5,62.5 167.5,56.5C 166.432,55.5655 165.099,55.2322 163.5,55.5C 163.5,50.1667 163.5,44.8333 163.5,39.5C 163.611,38.8826 163.944,38.3826 164.5,38C 170.5,37.3333 176.5,37.3333 182.5,38C 183.056,38.3826 183.389,38.8826 183.5,39.5 Z"/></g>
<g><path style="opacity:1" fill="#555555" d="M 163.5,39.5 C 163.5,44.8333 163.5,50.1667 163.5,55.5C 165.099,55.2322 166.432,55.5655 167.5,56.5C 165.833,56.5 164.167,56.5 162.5,56.5C 162.178,50.642 162.511,44.9753 163.5,39.5 Z"/></g>
<g><path style="opacity:1" fill="#acacac" d="M 183.5,39.5 C 184.489,44.9753 184.822,50.642 184.5,56.5C 182.833,56.5 181.167,56.5 179.5,56.5C 180.568,55.5655 181.901,55.2322 183.5,55.5C 183.5,50.1667 183.5,44.8333 183.5,39.5 Z"/></g>
<g><path style="opacity:1" fill="#f8f8f8" d="M 230.5,39.5 C 242.184,44.5639 253.851,49.7306 265.5,55C 266.86,56.9376 266.527,58.6043 264.5,60C 260.171,61.1515 256.338,60.3181 253,57.5C 251.316,59.3513 249.483,61.018 247.5,62.5C 250.837,65.7243 254.837,67.3909 259.5,67.5C 259.5,69.5 259.5,71.5 259.5,73.5C 260.833,73.5 262.167,73.5 263.5,73.5C 263.338,71.4727 263.505,69.4727 264,67.5C 266.175,66.7454 268.341,65.912 270.5,65C 271.836,62.8001 273.502,60.9667 275.5,59.5C 279.979,61.2402 284.312,63.2402 288.5,65.5C 276.391,82.7284 261.058,86.2284 242.5,76C 230.888,66.4025 226.888,54.2358 230.5,39.5 Z"/></g>
<g><path style="opacity:1" fill="#090909" d="M 48.5,49.5 C 54.4337,48.8887 60.1004,49.722 65.5,52C 69.5472,55.7121 68.7139,58.2121 63,59.5C 61.2252,58.7297 59.7252,57.563 58.5,56C 54.3164,54.8345 51.4831,56.3345 50,60.5C 48.5733,65.8099 49.7399,70.3099 53.5,74C 57.5029,74.8354 60.8363,73.6688 63.5,70.5C 69.2958,71.7657 69.9625,74.2657 65.5,78C 56.6276,83.5338 48.7943,82.3672 42,74.5C 39.7318,67.6649 40.0652,60.9982 43,54.5C 44.8119,52.6997 46.6452,51.0331 48.5,49.5 Z"/></g>
<g><path style="opacity:1" fill="#0b0b0b" d="M 79.5,49.5 C 83.5138,49.3345 87.5138,49.5012 91.5,50C 95.7911,51.0817 97.7911,53.5817 97.5,57.5C 96.0589,58.304 94.5589,58.9706 93,59.5C 88.1093,53.8415 83.776,54.1748 80,60.5C 78.5739,65.7566 79.7406,70.2566 83.5,74C 85.5,74.6667 87.5,74.6667 89.5,74C 92.5402,69.3528 95.5402,69.3528 98.5,74C 93.6031,81.4507 86.9364,83.4507 78.5,80C 70.8859,74.7922 68.3859,67.6255 71,58.5C 72.6878,54.3148 75.5212,51.3148 79.5,49.5 Z"/></g>
<g><path style="opacity:1" fill="#787878" d="M 340.5,56.5 C 337.287,56.19 334.287,56.5233 331.5,57.5C 330.957,57.44 330.624,57.1067 330.5,56.5C 333.98,55.1944 337.313,55.1944 340.5,56.5 Z"/></g>
<g><path style="opacity:1" fill="#f4f4f4" d="M 151.5,109.5 C 156.959,109.103 162.292,109.603 167.5,111C 168.795,113.801 168.795,116.634 167.5,119.5C 171.927,124.202 171.26,128.035 165.5,131C 160.845,131.499 156.179,131.666 151.5,131.5C 151.5,124.167 151.5,116.833 151.5,109.5 Z"/></g>
<g><path style="opacity:1" fill="#efefef" d="M 171.5,109.5 C 173.199,109.34 174.866,109.506 176.5,110C 178.211,112.589 180.045,115.089 182,117.5C 183.626,115.083 185.126,112.583 186.5,110C 188.5,109.333 190.5,109.333 192.5,110C 186.837,116.141 184.17,123.307 184.5,131.5C 182.833,131.5 181.167,131.5 179.5,131.5C 179.665,128.482 179.498,125.482 179,122.5C 175.971,118.438 173.471,114.105 171.5,109.5 Z"/></g>
<g><path style="opacity:1" fill="#f0f0f0" d="M 238.5,109.5 C 240.467,109.261 242.301,109.594 244,110.5C 246.416,115.001 249.083,119.334 252,123.5C 252.499,118.845 252.666,114.179 252.5,109.5C 254.167,109.5 255.833,109.5 257.5,109.5C 257.5,116.833 257.5,124.167 257.5,131.5C 255.396,131.799 253.396,131.466 251.5,130.5C 248.667,126.167 245.833,121.833 243,117.5C 242.501,122.155 242.334,126.821 242.5,131.5C 241.167,131.5 239.833,131.5 238.5,131.5C 238.5,124.167 238.5,116.833 238.5,109.5 Z"/></g>
<g><path style="opacity:1" fill="#ededed" d="M 269.5,108.5 C 275.265,108.528 278.932,111.194 280.5,116.5C 277.13,116.279 274.13,115.279 271.5,113.5C 267.017,113.652 265.017,115.986 265.5,120.5C 265.585,126.551 268.585,128.718 274.5,127C 275.337,125.989 275.67,124.822 275.5,123.5C 277.167,123.5 278.833,123.5 280.5,123.5C 280.456,127.09 278.789,129.59 275.5,131C 263.547,132.626 258.714,127.459 261,115.5C 262.851,111.843 265.684,109.51 269.5,108.5 Z"/></g>
<g><path style="opacity:1" fill="#e8e8e8" d="M 331.5,108.5 C 334.893,108.062 337.893,108.895 340.5,111C 342.155,112.444 342.822,114.278 342.5,116.5C 339.45,117.077 337.45,115.91 336.5,113C 334.833,112.333 333.167,112.333 331.5,113C 330.167,114.333 330.167,115.667 331.5,117C 336.012,117.499 339.845,119.333 343,122.5C 344.157,126.346 342.991,129.179 339.5,131C 334.322,133.554 329.822,132.721 326,128.5C 325.51,127.207 325.343,125.873 325.5,124.5C 327.167,124.5 328.833,124.5 330.5,124.5C 331.382,128.143 333.716,129.31 337.5,128C 338.833,126.667 338.833,125.333 337.5,124C 334.05,122.97 330.717,121.637 327.5,120C 324.423,114.651 325.756,110.817 331.5,108.5 Z"/></g>
<g><path style="opacity:1" fill="#f1f1f1" d="M 352.5,109.5 C 354.5,109.5 356.5,109.5 358.5,109.5C 360.833,116.833 363.167,124.167 365.5,131.5C 363.833,131.5 362.167,131.5 360.5,131.5C 360.579,130.07 360.246,128.736 359.5,127.5C 356.572,126.516 353.572,126.183 350.5,126.5C 350.442,130.788 348.442,132.121 344.5,130.5C 347.175,123.471 349.842,116.471 352.5,109.5 Z"/></g>
<g><path style="opacity:1" fill="#0b0b0b" d="M 156.5,113.5 C 158.857,113.337 161.19,113.503 163.5,114C 164.925,115.714 164.592,117.047 162.5,118C 160.527,118.495 158.527,118.662 156.5,118.5C 156.5,116.833 156.5,115.167 156.5,113.5 Z"/></g>
<g><path style="opacity:1" fill="#232323" d="M 354.5,115.5 C 356.267,117.792 357.267,120.458 357.5,123.5C 355.833,123.5 354.167,123.5 352.5,123.5C 352.963,120.779 353.629,118.112 354.5,115.5 Z"/></g>
<g><path style="opacity:1" fill="#111111" d="M 156.5,121.5 C 158.527,121.338 160.527,121.505 162.5,122C 165.346,122.879 166.013,124.546 164.5,127C 161.854,127.497 159.187,127.664 156.5,127.5C 156.5,125.5 156.5,123.5 156.5,121.5 Z"/></g>
</svg>
