<?xml version="1.0" standalone="no"?>
<!DOCTYPE svg PUBLIC "-//W3C//DTD SVG 20010904//EN"
 "http://www.w3.org/TR/2001/REC-SVG-20010904/DTD/svg10.dtd">
<svg version="1.0" xmlns="http://www.w3.org/2000/svg"
 width="32" height="32" viewBox="0 0 800.000000 600.000000"
 preserveAspectRatio="xMidYMid meet">

<g transform="translate(0.000000,600.000000) scale(0.100000,-0.100000)"
fill="#000000" stroke="none">
<path d="M0 3000 l0 -3000 3568 2 3567 3 70 23 c39 13 85 30 103 38 18 8 42
14 52 14 11 0 28 4 38 9 30 16 157 61 171 61 23 0 174 70 238 111 34 21 66 39
69 39 4 0 34 17 66 37 l58 38 0 1375 0 1375 -27 -40 c-54 -81 -108 -138 -233
-244 -129 -111 -162 -145 -248 -261 -94 -126 -256 -236 -407 -276 -83 -22
-277 -30 -372 -15 -83 13 -242 58 -317 91 -33 14 -44 23 -40 35 5 12 -3 15
-44 15 -54 0 -50 -2 -180 115 l-67 60 -3 -87 -3 -88 -49 0 -50 0 0 138 0 137
-106 98 c-58 53 -110 97 -115 97 -5 0 -9 -101 -9 -235 l0 -235 -50 0 -50 0 0
240 0 240 45 0 c25 0 45 5 45 11 0 6 8 8 18 5 9 -3 34 -8 55 -10 21 -3 70 -22
109 -41 60 -31 73 -34 80 -22 34 62 181 78 274 31 l52 -26 32 23 c26 20 47 25
116 28 73 3 88 0 120 -20 55 -34 74 -84 74 -200 0 -79 3 -98 16 -103 40 -15
216 -28 322 -23 161 7 268 40 387 119 82 55 136 109 205 203 32 44 89 108 126
141 112 100 207 195 252 252 l42 54 0 1334 0 1334 -1374 0 -1373 0 -1 -309
c-5 -939 -142 -1693 -433 -2374 -66 -153 -157 -338 -215 -437 -37 -62 -41 -66
-79 -69 -45 -3 -65 -16 -65 -39 0 -13 2 -13 13 2 9 12 23 17 45 14 l33 -3 -46
-73 c-25 -41 -45 -85 -45 -98 0 -14 -7 -41 -15 -62 -35 -83 -101 -121 -211
-122 -93 0 -147 27 -189 95 -27 44 -30 57 -35 164 l-5 116 -42 3 -43 3 0 50 0
49 55 0 c51 0 60 -4 96 -37 48 -45 58 -82 59 -205 0 -49 4 -88 9 -88 13 0 117
159 153 235 16 33 38 74 48 90 11 17 50 91 87 165 37 74 70 137 73 140 10 8
196 391 230 475 58 140 113 301 136 395 2 8 10 40 19 70 9 30 18 69 21 85 3
17 10 35 16 42 5 7 7 16 4 21 -3 5 1 33 9 63 20 76 83 436 95 544 18 157 30
278 34 345 3 36 12 133 20 215 8 83 18 179 21 215 11 115 14 133 33 228 l19
92 -2579 0 -2578 0 0 -3000z m4188 1454 l170 -221 -20 -112 c-11 -61 -18 -114
-15 -117 13 -14 218 142 261 199 57 74 15 102 -109 71 -17 -4 -18 -3 -4 5 25
16 199 61 235 61 45 0 79 -30 71 -62 -14 -55 -252 -248 -461 -373 -12 -8 -26
-64 -55 -233 -21 -122 -40 -225 -43 -227 -2 -2 -2 88 0 201 l5 206 -32 -16
c-36 -19 -35 -16 -56 -221 -9 -87 -18 -161 -20 -164 -3 -2 -5 43 -5 100 0 57
-3 134 -6 171 l-7 67 -37 -19 -38 -19 -7 -108 c-12 -198 -21 -215 -29 -60 -5
75 -12 137 -17 137 -5 0 -24 -8 -44 -17 -35 -17 -35 -17 -36 -82 0 -36 -4 -88
-8 -116 -7 -47 -7 -44 -15 50 -4 55 -10 103 -12 107 -3 4 -20 0 -39 -9 l-35
-17 -1 -95 c-1 -101 -11 -95 -25 15 -3 30 -9 56 -13 58 -4 3 -45 -9 -91 -25
-319 -113 -448 -81 -292 71 56 55 165 140 178 140 4 0 -13 -15 -38 -34 -115
-88 -101 -149 28 -127 55 10 193 48 202 56 2 1 -18 123 -43 270 l-46 268 89
116 c262 343 267 349 278 337 7 -6 88 -110 182 -232z m-2178 -1594 l0 -50
-214 0 -214 0 -26 -31 c-23 -27 -26 -39 -26 -109 0 -70 3 -82 26 -109 l26 -31
214 0 214 0 0 -51 0 -50 -229 3 -229 3 -43 30 c-55 39 -81 90 -87 175 -9 126
28 208 110 249 40 19 59 21 261 21 l217 0 0 -50z m801 27 c51 -34 71 -80 67
-154 -4 -67 -21 -99 -72 -137 -25 -19 -44 -21 -242 -24 l-214 -3 0 -70 0 -69
-55 0 -55 0 0 188 c0 209 6 232 72 272 30 18 51 20 249 20 208 0 217 -1 250
-23z m401 -143 l3 -166 28 -24 c27 -23 35 -24 155 -24 145 0 165 7 182 68 5
20 10 99 10 175 l0 138 53 -3 52 -3 0 -155 c0 -172 -8 -209 -55 -257 -57 -58
-84 -65 -255 -61 -152 3 -154 3 -196 33 -73 52 -84 84 -87 278 l-3 167 55 0
55 0 3 -166z m2138 116 l0 -50 -228 0 c-239 0 -252 -2 -252 -45 0 -42 15 -45
215 -45 178 0 194 -2 235 -22 102 -52 106 -188 8 -248 -31 -19 -51 -20 -301
-20 l-268 0 3 48 3 47 249 3 c164 1 254 6 263 13 17 14 17 53 0 67 -7 6 -93
12 -214 14 -185 3 -204 5 -229 24 -93 69 -95 179 -4 242 32 21 40 22 276 22
l244 0 0 -50z m-1123 -455 c35 0 63 -2 63 -4 0 -7 -110 -141 -169 -204 -87
-96 -86 -92 -62 -116 59 -59 25 -161 -55 -161 -45 0 -70 13 -88 48 -9 15 -15
22 -16 15 0 -8 -16 -11 -47 -10 -57 2 -69 20 -48 69 8 18 14 29 15 24 0 -12
40 40 40 53 0 6 4 11 9 11 5 0 19 21 32 48 12 26 30 57 38 68 29 40 41 59 59
94 10 19 23 34 30 33 7 -2 12 4 12 12 0 8 10 26 21 39 l21 24 41 -21 c29 -15
60 -21 104 -22z m-717 -310 c0 -11 -11 -15 -40 -15 -36 0 -40 -2 -40 -25 0
-22 4 -25 40 -25 29 0 40 -4 40 -15 0 -11 -11 -15 -40 -15 -38 0 -40 -2 -40
-30 0 -28 2 -30 40 -30 29 0 40 -4 40 -15 0 -12 -13 -15 -55 -15 l-55 0 0 100
0 100 55 0 c42 0 55 -3 55 -15z m252 -2 c19 -17 24 -58 8 -68 -6 -4 -4 -15 5
-29 12 -17 13 -30 6 -48 -11 -30 -29 -38 -87 -38 l-44 0 0 100 0 100 47 0 c29
0 53 -6 65 -17z m608 -19 c57 -56 15 -156 -65 -156 -101 0 -124 143 -30 183
29 12 66 1 95 -27z m190 -6 l0 -42 43 42 c57 56 83 54 27 -3 l-43 -44 38 -46
c48 -59 35 -74 -15 -17 -21 23 -40 42 -44 42 -3 0 -6 -18 -6 -40 0 -29 -4 -40
-15 -40 -12 0 -15 17 -15 95 0 78 3 95 15 95 11 0 15 -11 15 -42z m2520 -1407
c0 -5 -4 -21 -10 -35 -5 -14 -6 -26 -1 -26 11 0 36 30 44 53 8 22 57 24 57 1
0 -8 -14 -30 -31 -47 -29 -29 -31 -34 -22 -67 6 -19 13 -43 17 -52 5 -11 1
-20 -13 -28 -31 -16 -39 -6 -46 55 -4 30 -11 55 -15 55 -4 0 -12 -18 -19 -40
-10 -33 -16 -40 -36 -40 -14 0 -25 1 -25 3 0 1 9 31 20 65 25 80 25 85 -1 71
-15 -8 -20 -18 -16 -35 6 -34 -20 -55 -39 -29 -19 26 -17 49 6 70 29 26 130
46 130 26z m150 -11 c0 -24 -26 -38 -42 -22 -16 16 -2 42 22 42 13 0 20 -7 20
-20z m80 -15 c-9 -22 -7 -25 15 -25 18 0 25 5 25 19 0 19 18 31 46 31 10 0 11
-6 4 -25 -7 -20 -6 -25 5 -25 21 0 18 -17 -4 -23 -17 -4 -38 -53 -27 -64 15
-15 36 13 56 71 19 58 25 66 47 66 16 0 23 -5 21 -12 -24 -65 -39 -120 -33
-126 3 -3 10 0 15 8 5 8 12 11 16 7 4 -4 -1 -16 -11 -27 -20 -22 -60 -27 -71
-9 -4 8 -9 8 -17 0 -14 -14 -64 -14 -73 0 -4 8 -9 8 -17 0 -14 -14 -64 -14
-72 -1 -4 7 -12 7 -25 0 -27 -14 -57 -12 -63 4 -3 8 0 33 7 57 10 32 19 45 35
47 23 4 26 -7 12 -56 -11 -35 -2 -41 21 -14 22 25 30 52 15 52 -7 1 -5 6 6 14
9 7 17 20 17 29 0 16 14 25 42 26 15 1 16 -3 8 -24z"/>
<path d="M3903 4170 c-6 -217 -9 -397 -7 -399 2 -3 20 3 40 13 l36 17 -6 67
c-4 37 -15 198 -26 357 -11 160 -21 301 -23 315 -1 14 -7 -153 -14 -370z"/>
<path d="M4057 4245 c-10 -143 -21 -295 -24 -338 l-6 -78 37 17 37 18 -7 241
c-12 422 -16 440 -37 140z"/>
<path d="M4191 4149 c-13 -127 -21 -233 -18 -235 3 -3 15 -1 26 6 20 10 21 18
21 235 0 124 -1 225 -3 225 -1 0 -13 -104 -26 -231z"/>
<path d="M3781 4028 c0 -170 1 -308 3 -308 3 0 16 4 30 10 33 12 33 21 -3 350
l-29 255 -1 -307z"/>
<path d="M2356 2794 c-3 -9 -6 -40 -6 -70 l0 -54 194 0 c164 0 197 3 210 16
19 18 22 94 4 112 -8 8 -68 12 -204 12 -166 0 -193 -2 -198 -16z"/>
<path d="M3966 2040 c-41 -46 -42 -48 -20 -78 15 -22 66 -30 91 -14 22 14 33
60 22 89 -21 55 -45 56 -93 3z"/>
<path d="M3876 1994 c-5 -14 -4 -15 9 -4 17 14 19 20 6 20 -5 0 -12 -7 -15
-16z"/>
<path d="M3680 2055 c0 -24 3 -26 33 -23 24 2 32 8 32 23 0 15 -8 21 -32 23
-30 3 -33 1 -33 -23z"/>
<path d="M3680 1969 c0 -28 2 -30 32 -27 57 5 48 57 -9 58 -19 0 -23 -5 -23
-31z"/>
<path d="M4290 2083 c-33 -12 -50 -37 -50 -73 0 -45 24 -70 68 -70 61 0 86 89
36 129 -28 22 -30 23 -54 14z"/>
<path d="M7290 564 c-12 -30 -13 -44 -2 -44 15 0 31 17 41 43 9 24 8 27 -9 27
-13 0 -24 -10 -30 -26z"/>
<path d="M6077 2803 c-4 -3 -7 -11 -7 -17 0 -13 77 -62 92 -58 6 1 15 -1 22
-6 6 -5 24 -12 40 -16 28 -7 29 -6 22 25 -11 57 -41 79 -106 79 -31 0 -60 -3
-63 -7z"/>
<path d="M6385 2785 c-20 -20 -25 -34 -25 -78 l0 -54 48 -12 c26 -7 62 -17 80
-22 19 -6 36 -9 38 -6 3 3 8 38 11 79 8 103 -2 118 -73 118 -45 0 -59 -4 -79
-25z"/>
<path d="M6540 2421 c0 -9 80 -19 100 -13 29 10 3 22 -45 22 -30 0 -55 -4 -55
-9z"/>
<path d="M7962 140 c-18 -15 -74 -52 -124 -81 l-91 -54 123 -3 c67 -1 125 -1
127 1 2 3 3 41 1 85 l-3 80 -33 -28z"/>
</g>
</svg>
