<?xml version="1.0" standalone="no"?>
<!DOCTYPE svg PUBLIC "-//W3C//DTD SVG 20010904//EN"
 "http://www.w3.org/TR/2001/REC-SVG-20010904/DTD/svg10.dtd">
<svg version="1.0" xmlns="http://www.w3.org/2000/svg"
 width="1024.000000pt" height="1024.000000pt" viewBox="0 0 1024.000000 1024.000000"
 preserveAspectRatio="xMidYMid meet">

<g transform="translate(0.000000,1024.000000) scale(0.100000,-0.100000)"
fill="#000000" stroke="none">
<path d="M1910 8459 c-32 -13 -77 -56 -98 -94 -15 -28 -17 -208 -16 -2220 l2
-2190 249 -3 250 -2 93 232 c51 128 122 302 157 386 34 84 63 157 63 162 0 6
-29 10 -65 10 l-65 0 0 1535 0 1535 696 0 695 0 36 78 c19 42 70 165 113 272
43 107 90 221 104 253 l26 57 -1108 -1 c-708 0 -1116 -4 -1132 -10z"/>
<path d="M5943 8458 c3 -7 41 -96 84 -198 44 -102 104 -245 134 -317 l54 -133
738 0 737 0 0 -1530 0 -1530 -100 0 c-55 0 -100 -4 -100 -9 0 -5 9 -31 21 -58
11 -26 72 -174 134 -328 62 -154 126 -309 142 -345 l29 -65 278 3 277 3 -3
2192 c-3 2018 -4 2194 -20 2222 -22 41 -56 71 -100 90 -33 13 -171 15 -1174
15 -905 0 -1135 -3 -1131 -12z"/>
<path d="M4410 7913 c-24 -60 -73 -182 -110 -273 -310 -755 -406 -991 -533
-1305 -206 -510 -270 -669 -342 -840 -35 -82 -108 -262 -163 -400 -55 -137
-126 -311 -157 -385 -31 -74 -67 -162 -79 -195 -13 -33 -89 -222 -171 -420
-214 -523 -593 -1476 -776 -1952 l-9 -23 628 0 628 0 214 538 c117 295 222
558 233 584 l19 48 1258 0 1258 0 234 -585 233 -585 638 0 c350 0 637 2 637 4
0 7 -355 883 -547 1351 -64 154 -144 350 -178 435 -34 85 -119 292 -188 460
-69 168 -172 422 -230 565 -58 143 -122 298 -142 345 -20 47 -113 274 -207
505 -93 231 -203 499 -243 595 -119 285 -193 464 -270 650 -116 280 -376 912
-393 953 l-15 37 -593 0 -592 0 -42 -107z m842 -1873 c247 -613 611 -1525 654
-1642 6 -17 -39 -18 -860 -18 -476 0 -866 3 -866 7 0 4 36 98 80 208 216 543
357 895 550 1375 116 289 216 536 222 550 9 23 12 19 45 -55 19 -44 98 -235
175 -425z"/>
<path d="M5068 4813 c7 -3 16 -2 19 1 4 3 -2 6 -13 5 -11 0 -14 -3 -6 -6z"/>
<path d="M5183 4813 c15 -2 39 -2 55 0 15 2 2 4 -28 4 -30 0 -43 -2 -27 -4z"/>
<path d="M4128 2823 c6 -2 18 -2 25 0 6 3 1 5 -13 5 -14 0 -19 -2 -12 -5z"/>
<path d="M4293 2823 c9 -2 23 -2 30 0 6 3 -1 5 -18 5 -16 0 -22 -2 -12 -5z"/>
</g>
</svg>
